<?xml version="1.0" standalone="no"?>
<!DOCTYPE svg PUBLIC "-//W3C//DTD SVG 20010904//EN"
 "http://www.w3.org/TR/2001/REC-SVG-20010904/DTD/svg10.dtd">
<svg version="1.0" xmlns="http://www.w3.org/2000/svg"
 width="101.000000pt" height="101.000000pt" viewBox="0 0 1125.000000 1125.000000"
 preserveAspectRatio="xMidYMid meet">

<g transform="translate(0.000000,1125.000000) scale(0.100000,-0.100000)"
fill="#ff005a" stroke="none">
<path d="M0 5625 l0 -5625 5625 0 5625 0 0 5625 0 5625 -5625 0 -5625 0 0
-5625z m3804 2413 c-10 -17 -120 -156 -334 -418 -242 -298 -290 -358 -290
-365 0 -4 906 -6 2013 -5 1106 1 2418 2 2915 1 l902 -1 0 -165 0 -165 -958 0
-957 0 -509 -1526 c-279 -839 -506 -1527 -504 -1529 8 -8 2323 -6 2324 2 1 4
-143 157 -320 338 l-321 330 305 3 305 3 190 -198 c104 -109 335 -344 512
-523 l322 -325 -1941 -3 c-1068 -1 -1943 0 -1945 2 -5 4 80 260 658 2000 258
776 469 1413 469 1418 0 4 -735 8 -1633 8 l-1634 0 -214 -262 c-118 -143 -371
-455 -563 -692 -191 -237 -351 -435 -356 -439 -8 -9 -283 211 -278 224 3 7
288 360 638 790 252 308 300 369 300 373 0 3 -228 7 -507 8 l-508 3 -3 163 -2
162 421 0 422 0 36 38 c20 21 63 72 96 112 33 41 139 172 235 290 96 118 199
245 228 282 29 36 58 69 65 71 6 3 106 6 220 6 164 1 207 -2 201 -11z m4456
-213 l0 -195 -1005 0 -1005 0 0 195 0 195 1005 0 1005 0 0 -195z m-3430 -2990
l0 -1345 -335 0 -335 0 0 135 0 134 148 3 147 3 3 775 c2 426 0 871 -4 988
l-6 212 -564 0 -564 0 0 -1125 0 -1125 -175 0 -175 0 0 1345 0 1345 930 0 930
0 0 -1345z m-460 180 l0 -125 -480 0 -480 0 0 125 0 125 480 0 480 0 0 -125z
m-10 -600 l0 -125 -480 0 -480 0 0 125 0 125 480 0 480 0 0 -125z"/>
</g>
</svg>
