<?xml version="1.0" standalone="no"?>
<!DOCTYPE svg PUBLIC "-//W3C//DTD SVG 20010904//EN"
 "http://www.w3.org/TR/2001/REC-SVG-20010904/DTD/svg10.dtd">
<svg version="1.0" xmlns="http://www.w3.org/2000/svg"
 width="100.000000pt" height="100.000000pt" viewBox="0 0 900.000000 900.000000"
 preserveAspectRatio="xMidYMid meet">

<g transform="translate(0.000000,900.000000) scale(0.100000,-0.100000)"
fill="#000000" stroke="none">
<path d="M0 4500 l0 -4500 4500 0 4500 0 0 4500 0 4500 -4500 0 -4500 0 0
-4500z m3450 2359 c0 -5 -70 -95 -155 -199 -85 -104 -155 -191 -155 -194 0 -3
687 -7 1528 -8 l1527 -3 3 -87 3 -88 -503 0 -503 0 -267 -802 c-147 -441 -266
-803 -264 -805 4 -5 1216 -9 1216 -4 0 2 -74 81 -165 176 -91 95 -165 175
-165 179 0 3 69 6 154 6 l154 0 263 -271 c145 -149 265 -275 267 -279 2 -5
-451 -9 -1012 -10 -812 0 -1016 3 -1016 13 0 10 37 119 83 247 12 34 68 206
70 215 2 6 5 15 9 20 3 6 11 30 17 55 7 25 16 54 21 65 8 19 70 199 75 220 1
6 5 17 8 25 29 71 314 940 309 944 -3 3 -391 6 -863 6 l-857 0 -231 -285 -232
-285 -121 0 c-95 0 -118 3 -111 13 5 6 105 130 221 274 117 144 212 266 212
272 0 8 -82 11 -260 11 l-261 0 3 88 3 87 222 3 223 2 167 205 168 205 107 0
c70 0 108 -4 108 -11z m2358 -106 l3 -103 -531 0 -530 0 0 105 0 105 528 -2
527 -3 3 -102z m-1818 -1572 l0 -709 -161 0 c-88 -1 -167 2 -175 5 -10 4 -14
22 -14 68 0 72 3 75 103 75 l57 0 0 520 0 520 -297 -2 -298 -3 -3 -593 -2
-593 -93 3 -92 3 -3 695 c-1 382 0 701 3 708 3 9 111 12 490 12 l485 0 0 -709z
m-232 97 l3 -68 -261 0 -260 0 0 63 c0 35 3 67 7 71 4 3 119 5 257 4 l251 -3
3 -67z m-8 -313 l0 -65 -255 0 -255 0 0 58 c0 32 3 62 7 65 3 4 118 7 255 7
l248 0 0 -65z m-640 -903 c0 -5 -36 -53 -80 -108 l-80 -98 0 -809 0 -808 -97
3 -98 3 -3 675 -2 675 -125 -3 c-69 -2 -125 0 -125 4 0 7 168 218 312 392 l69
82 114 0 c63 0 115 -4 115 -8z m720 0 c0 -4 -20 -67 -44 -139 -24 -72 -42
-134 -38 -137 3 -3 601 -6 1329 -6 l1324 0 -3 -82 -3 -83 -1333 -3 -1332 -2 2
-598 3 -597 253 -3 252 -2 0 -85 0 -85 -347 2 -348 3 -5 463 -5 462 -153 -465
-153 -465 -84 0 c-46 0 -86 4 -89 9 -3 4 96 311 219 682 124 371 225 675 225
676 0 2 -89 4 -197 5 l-198 3 -3 83 -3 82 230 0 229 0 43 128 c23 70 46 135
51 145 7 14 23 17 93 17 47 0 85 -4 85 -8z m270 -72 l0 -81 -82 3 -83 3 -3 64
c-2 35 -1 70 2 77 4 10 27 14 86 14 l80 0 0 -80z m1345 -10 l0 -85 -82 -3 -83
-3 0 91 0 91 83 -3 82 -3 0 -85z m353 -657 l-3 -208 -412 -3 -413 -2 0 210 0
210 415 0 415 0 -2 -207z m40 -365 l-3 -83 -125 -3 -125 -3 -57 -57 c-43 -42
-58 -64 -58 -84 l0 -28 485 0 486 0 -3 -92 -3 -93 -502 -3 -502 -2 -3 -133 -3
-132 -162 -3 -163 -2 0 79 0 80 93 3 92 3 3 52 3 53 -443 2 -443 3 -3 92 -3
93 443 2 443 3 3 55 c2 43 9 61 29 83 l27 27 -212 0 -212 0 0 85 0 85 460 0
461 0 -3 -82z"/>
<path d="M5210 3310 l0 -90 168 2 167 3 3 88 3 87 -171 0 -170 0 0 -90z"/>
</g>
</svg>
